<svg xmlns="http://www.w3.org/2000/svg" viewBox="0 0 24 24" aria-hidden="true" focusable="false">
  <title>Bank Transfer</title>
  <defs>
    <clipPath id="bt-rounded">
      <rect width="24" height="24" rx="5" />
    </clipPath>
  </defs>
  <g clip-path="url(#bt-rounded)">
    <rect width="24" height="24" fill="#ffffff" />
    <rect x="0.75" y="0.75" width="22.5" height="22.5" rx="4.25" fill="none" stroke="#E5E7EB" />

    <!-- 左侧“银行” -->
    <path
      d="M4.6 10.3l3.4-2.2 3.4 2.2v1H4.6v-1zm.8 2.2h.9v4.6h-.9v-4.6zm2 0h.9v4.6h-.9v-4.6zm2 0h.9v4.6h-.9v-4.6z"
      fill="#2563EB"
    />

    <!-- 右侧“银行” -->
    <path
      d="M12.6 10.3l3.4-2.2 3.4 2.2v1h-6.8v-1zm.8 2.2h.9v4.6h-.9v-4.6zm2 0h.9v4.6h-.9v-4.6zm2 0h.9v4.6h-.9v-4.6z"
      fill="#7C3AED"
    />

    <!-- 双向转账箭头 -->
    <path
      d="M10.7 13.2h2.6m-2.6 0l.9-.9m-.9.9l.9.9M13.3 15.8h-2.6m2.6 0l-.9-.9m.9.9l-.9.9"
      fill="none"
      stroke="#10B981"
      stroke-width="1.4"
      stroke-linecap="round"
      stroke-linejoin="round"
      opacity="0.95"
    />
  </g>
</svg>
